HIERARCHY
ROOT Hips
{
  OFFSET 0.000000 95.000000 0.000000
  CHANNELS 6 Xposition Yposition Zposition Zrotation Xrotation Yrotation
  JOINT Spine
  {
    OFFSET 0.000000 10.000000 0.000000
    CHANNELS 3 Zrotation Xrotation Yrotation
    JOINT Spine1
    {
      OFFSET 0.000000 12.000000 0.000000
      CHANNELS 3 Zrotation Xrotation Yrotation
      JOINT Spine2
      {
        OFFSET 0.000000 12.000000 0.000000
        CHANNELS 3 Zrotation Xrotation Yrotation
        JOINT Neck
        {
          OFFSET 0.000000 10.000000 0.000000
          CHANNELS 3 Zrotation Xrotation Yrotation
          JOINT Head
          {
            OFFSET 0.000000 8.000000 0.000000
            CHANNELS 3 Zrotation Xrotation Yrotation
            End Site
            {
              OFFSET 0.000000 10.000000 0.000000
            }
          }
        }
        JOINT LeftShoulder
        {
          OFFSET 6.000000 8.000000 0.000000
          CHANNELS 3 Zrotation Xrotation Yrotation
          JOINT LeftArm
          {
            OFFSET 12.000000 0.000000 0.000000
            CHANNELS 3 Zrotation Xrotation Yrotation
            JOINT LeftForeArm
            {
              OFFSET 24.000000 0.000000 0.000000
              CHANNELS 3 Zrotation Xrotation Yrotation
              JOINT LeftHand
              {
                OFFSET 22.000000 0.000000 0.000000
                CHANNELS 3 Zrotation Xrotation Yrotation
                JOINT LeftHandThumb1
                {
                  OFFSET 1.800000 -1.400000 0.500000
                  CHANNELS 3 Zrotation Xrotation Yrotation
                  JOINT LeftHandThumb2
                  {
                    OFFSET 2.400000 0.000000 0.000000
                    CHANNELS 3 Zrotation Xrotation Yrotation
                    JOINT LeftHandThumb3
                    {
                      OFFSET 1.900000 0.000000 0.000000
                      CHANNELS 3 Zrotation Xrotation Yrotation
                      End Site
                      {
                        OFFSET 1.600000 0.000000 0.000000
                      }
                    }
                  }
                }
                JOINT LeftHandIndex1
                {
                  OFFSET 6.600000 1.200000 0.300000
                  CHANNELS 3 Zrotation Xrotation Yrotation
                  JOINT LeftHandIndex2
                  {
                    OFFSET 2.000000 0.000000 0.000000
                    CHANNELS 3 Zrotation Xrotation Yrotation
                    JOINT LeftHandIndex3
                    {
                      OFFSET 1.200000 0.000000 0.000000
                      CHANNELS 3 Zrotation Xrotation Yrotation
                      End Site
                      {
                        OFFSET 1.000000 0.000000 0.000000
                      }
                    }
                  }
                }
                JOINT LeftHandMiddle1
                {
                  OFFSET 7.200000 0.000000 0.300000
                  CHANNELS 3 Zrotation Xrotation Yrotation
                  JOINT LeftHandMiddle2
                  {
                    OFFSET 3.000000 0.000000 0.000000
                    CHANNELS 3 Zrotation Xrotation Yrotation
                    JOINT LeftHandMiddle3
                    {
                      OFFSET 2.000000 0.000000 0.000000
                      CHANNELS 3 Zrotation Xrotation Yrotation
                      End Site
                      {
                        OFFSET 1.600000 0.000000 0.000000
                      }
                    }
                  }
                }
                JOINT LeftHandRing1
                {
                  OFFSET 7.100000 -1.000000 0.400000
                  CHANNELS 3 Zrotation Xrotation Yrotation
                  JOINT LeftHandRing2
                  {
                    OFFSET 2.600000 0.000000 0.000000
                    CHANNELS 3 Zrotation Xrotation Yrotation
                    JOINT LeftHandRing3
                    {
                      OFFSET 1.600000 0.000000 0.000000
                      CHANNELS 3 Zrotation Xrotation Yrotation
                      End Site
                      {
                        OFFSET 1.300000 0.000000 0.000000
                      }
                    }
                  }
                }
                JOINT LeftHandPinky1
                {
                  OFFSET 6.500000 -2.000000 0.500000
                  CHANNELS 3 Zrotation Xrotation Yrotation
                  JOINT LeftHandPinky2
                  {
                    OFFSET 1.900000 0.000000 0.000000
                    CHANNELS 3 Zrotation Xrotation Yrotation
                    JOINT LeftHandPinky3
                    {
                      OFFSET 1.400000 0.000000 0.000000
                      CHANNELS 3 Zrotation Xrotation Yrotation
                      End Site
                      {
                        OFFSET 1.300000 0.000000 0.000000
                      }
                    }
                  }
                }
              }
            }
          }
        }
        JOINT RightShoulder
        {
          OFFSET -6.000000 8.000000 0.000000
          CHANNELS 3 Zrotation Xrotation Yrotation
          JOINT RightArm
          {
            OFFSET -12.000000 0.000000 0.000000
            CHANNELS 3 Zrotation Xrotation Yrotation
            JOINT RightForeArm
            {
              OFFSET -24.000000 0.000000 0.000000
              CHANNELS 3 Zrotation Xrotation Yrotation
              JOINT RightHand
              {
                OFFSET -22.000000 0.000000 0.000000
                CHANNELS 3 Zrotation Xrotation Yrotation
                JOINT RightHandThumb1
                {
                  OFFSET -1.800000 -1.400000 0.500000
                  CHANNELS 3 Zrotation Xrotation Yrotation
                  JOINT RightHandThumb2
                  {
                    OFFSET -2.400000 0.000000 0.000000
                    CHANNELS 3 Zrotation Xrotation Yrotation
                    JOINT RightHandThumb3
                    {
                      OFFSET -1.900000 0.000000 0.000000
                      CHANNELS 3 Zrotation Xrotation Yrotation
                      End Site
                      {
                        OFFSET -1.600000 0.000000 0.000000
                      }
                    }
                  }
                }
                JOINT RightHandIndex1
                {
                  OFFSET -6.600000 1.200000 0.300000
                  CHANNELS 3 Zrotation Xrotation Yrotation
                  JOINT RightHandIndex2
                  {
                    OFFSET -2.000000 0.000000 0.000000
                    CHANNELS 3 Zrotation Xrotation Yrotation
                    JOINT RightHandIndex3
                    {
                      OFFSET -1.200000 0.000000 0.000000
                      CHANNELS 3 Zrotation Xrotation Yrotation
                      End Site
                      {
                        OFFSET -1.000000 0.000000 0.000000
                      }
                    }
                  }
                }
                JOINT RightHandMiddle1
                {
                  OFFSET -7.200000 0.000000 0.300000
                  CHANNELS 3 Zrotation Xrotation Yrotation
                  JOINT RightHandMiddle2
                  {
                    OFFSET -3.000000 0.000000 0.000000
                    CHANNELS 3 Zrotation Xrotation Yrotation
                    JOINT RightHandMiddle3
                    {
                      OFFSET -2.000000 0.000000 0.000000
                      CHANNELS 3 Zrotation Xrotation Yrotation
                      End Site
                      {
                        OFFSET -1.600000 0.000000 0.000000
                      }
                    }
                  }
                }
                JOINT RightHandRing1
                {
                  OFFSET -7.100000 -1.000000 0.400000
                  CHANNELS 3 Zrotation Xrotation Yrotation
                  JOINT RightHandRing2
                  {
                    OFFSET -2.600000 0.000000 0.000000
                    CHANNELS 3 Zrotation Xrotation Yrotation
                    JOINT RightHandRing3
                    {
                      OFFSET -1.600000 0.000000 0.000000
                      CHANNELS 3 Zrotation Xrotation Yrotation
                      End Site
                      {
                        OFFSET -1.300000 0.000000 0.000000
                      }
                    }
                  }
                }
                JOINT RightHandPinky1
                {
                  OFFSET -6.500000 -2.000000 0.500000
                  CHANNELS 3 Zrotation Xrotation Yrotation
                  JOINT RightHandPinky2
                  {
                    OFFSET -1.900000 0.000000 0.000000
                    CHANNELS 3 Zrotation Xrotation Yrotation
                    JOINT RightHandPinky3
                    {
                      OFFSET -1.400000 0.000000 0.000000
                      CHANNELS 3 Zrotation Xrotation Yrotation
                      End Site
                      {
                        OFFSET -1.300000 0.000000 0.000000
                      }
                    }
                  }
                }
              }
            }
          }
        }
      }
    }
  }
  JOINT LeftUpLeg
  {
    OFFSET 10.000000 -5.000000 0.000000
    CHANNELS 3 Zrotation Xrotation Yrotation
    JOINT LeftLeg
    {
      OFFSET 0.000000 -42.000000 0.000000
      CHANNELS 3 Zrotation Xrotation Yrotation
      JOINT LeftFoot
      {
        OFFSET 0.000000 -42.000000 4.000000
        CHANNELS 3 Zrotation Xrotation Yrotation
        End Site
        {
          OFFSET 0.000000 0.000000 12.000000
        }
      }
    }
  }
  JOINT RightUpLeg
  {
    OFFSET -10.000000 -5.000000 0.000000
    CHANNELS 3 Zrotation Xrotation Yrotation
    JOINT RightLeg
    {
      OFFSET 0.000000 -42.000000 0.000000
      CHANNELS 3 Zrotation Xrotation Yrotation
      JOINT RightFoot
      {
        OFFSET 0.000000 -42.000000 4.000000
        CHANNELS 3 Zrotation Xrotation Yrotation
        End Site
        {
          OFFSET 0.000000 0.000000 12.000000
        }
      }
    }
  }
}
MOTION
Frames: 9
Frame Time: 0.033333
0.0000 95.0000 0.0000 0.0000 0.0000 0.0000 0.0000 0.0000 0.0000 0.0000 0.0000 0.0000 0.0000 0.0000 0.0000 0.0000 0.0000 0.0000 0.0000 0.0000 0.0000 0.0000 0.0000 0.0000 -73.1959 14.7765 19.8093 0.3343 0.7788 -1.1151 29.7041 1.9950 -91.6437 66.5786 -14.0789 -5.4768 25.4349 0.0000 0.0000 23.3154 0.0000 0.0000 -0.9643 11.1241 -59.7912 19.3586 0.0000 0.0000 4.0227 0.0000 0.0000 8.5867 5.2854 -67.9390 14.9584 0.0000 0.0000 1.4543 0.0000 0.0000 16.4491 -0.5848 -72.8058 17.5158 0.0000 0.0000 2.0684 0.0000 0.0000 21.9726 -10.7077 -76.8570 16.2074 0.0000 0.0000 2.8996 0.0000 0.0000 0.0000 0.0000 0.0000 74.7059 -23.8908 30.9849 -158.2601 65.0933 -71.8963 303.7060 29.7534 -77.9845 -56.2517 -11.1715 -5.3104 10.8191 0.0000 0.0000 2.7390 0.0000 0.0000 14.3493 0.6516 0.1939 5.1370 0.0000 0.0000 3.3476 0.0000 0.0000 3.8108 0.2360 -2.3132 5.0118 0.0000 0.0000 1.4052 0.0000 0.0000 -3.4664 -0.0000 -1.7660 2.7148 0.0000 0.0000 2.4567 0.0000 0.0000 -11.2312 -0.6717 -0.8364 3.7889 0.0000 0.0000 3.7841 0.0000 0.0000 0.0000 0.0000 0.0000 0.0000 0.0000 0.0000 0.0000 0.0000 0.0000 0.0000 0.0000 0.0000 0.0000 0.0000 0.0000 0.0000 0.0000 0.0000
0.0000 95.0000 0.0000 0.0000 0.0000 0.0000 0.0000 0.0000 0.0000 0.0000 0.0000 0.0000 0.0000 0.0000 0.0000 0.0000 0.0000 0.0000 0.0000 0.0000 0.0000 0.0000 0.0000 0.0000 -73.3528 14.7299 19.6922 0.2289 1.1498 -1.5535 28.6670 5.1257 -78.6637 70.1406 -14.5807 -7.9011 24.7222 0.0000 0.0000 25.7204 0.0000 0.0000 7.0226 16.2922 -62.7539 22.6857 0.0000 0.0000 4.2045 0.0000 0.0000 17.0349 11.6139 -73.1303 17.1900 0.0000 0.0000 1.6896 0.0000 0.0000 24.9499 5.8034 -79.7139 19.4510 0.0000 0.0000 2.2074 0.0000 0.0000 30.4348 -5.3939 -86.4529 17.8776 0.0000 0.0000 3.1327 0.0000 0.0000 0.0000 0.0000 0.0000 74.7174 -23.8370 30.9102 -158.4401 65.5895 -72.1950 304.2680 30.1677 -78.9929 -56.4077 -11.3303 -4.4922 9.8641 0.0000 0.0000 5.0581 0.0000 0.0000 13.9369 0.6224 -0.0060 4.4810 0.0000 0.0000 3.5246 0.0000 0.0000 3.4899 0.2091 -2.0832 5.3723 0.0000 0.0000 1.7345 0.0000 0.0000 -3.8179 -0.1051 -1.0193 3.2053 0.0000 0.0000 2.8775 0.0000 0.0000 -12.1790 -1.0063 0.4939 2.2121 0.0000 0.0000 4.1676 0.0000 0.0000 0.0000 0.0000 0.0000 0.0000 0.0000 0.0000 0.0000 0.0000 0.0000 0.0000 0.0000 0.0000 0.0000 0.0000 0.0000 0.0000 0.0000 0.0000
0.0000 95.0000 0.0000 0.0000 0.0000 0.0000 0.0000 0.0000 0.0000 0.0000 0.0000 0.0000 0.0000 0.0000 0.0000 0.0000 0.0000 0.0000 0.0000 0.0000 0.0000 0.0000 0.0000 0.0000 -73.1470 14.7065 19.7335 -0.2153 1.5478 -1.9320 26.9151 7.0913 -67.6457 73.9468 -14.9530 -10.3391 23.7324 0.0000 0.0000 28.4025 0.0000 0.0000 13.2412 20.4416 -64.2146 26.7058 0.0000 0.0000 4.3839 0.0000 0.0000 23.7485 17.3433 -76.6825 19.7482 0.0000 0.0000 1.9575 0.0000 0.0000 31.4183 11.8103 -85.0221 21.5626 0.0000 0.0000 2.3935 0.0000 0.0000 36.2854 -0.3528 -94.3510 19.6519 0.0000 0.0000 3.4199 0.0000 0.0000 0.0000 0.0000 0.0000 74.6062 -23.9560 31.1210 -158.1523 65.6426 -72.1257 302.0508 28.5603 -80.8299 -55.8882 -11.1184 -5.1258 10.6980 0.0000 0.0000 3.0602 0.0000 0.0000 14.7250 0.6611 0.0683 5.7913 0.0000 0.0000 3.2406 0.0000 0.0000 5.2095 0.3045 -1.9146 6.9380 0.0000 0.0000 1.7811 0.0000 0.0000 -1.9682 -0.0479 -0.5083 4.8844 0.0000 0.0000 2.5929 0.0000 0.0000 -11.4847 -1.1560 1.4799 1.2992 0.0000 0.0000 3.8578 0.0000 0.0000 0.0000 0.0000 0.0000 0.0000 0.0000 0.0000 0.0000 0.0000 0.0000 0.0000 0.0000 0.0000 0.0000 0.0000 0.0000 0.0000 0.0000 0.0000
0.0000 95.0000 0.0000 0.0000 0.0000 0.0000 0.0000 0.0000 0.0000 0.0000 0.0000 0.0000 0.0000 0.0000 0.0000 0.0000 0.0000 0.0000 0.0000 0.0000 0.0000 0.0000 0.0000 0.0000 -72.9503 14.9931 20.1855 -0.3541 1.9309 -2.3899 24.4419 8.0496 -59.0008 77.3699 -15.1501 -12.6094 22.4325 0.0000 0.0000 31.3734 0.0000 0.0000 16.8376 22.9719 -65.0563 31.6441 0.0000 0.0000 4.5597 0.0000 0.0000 28.1234 21.6764 -79.5577 22.7208 0.0000 0.0000 2.2646 0.0000 0.0000 35.4341 16.4922 -89.6574 23.8845 0.0000 0.0000 2.6359 0.0000 0.0000 39.3670 3.1907 -101.3246 21.5476 0.0000 0.0000 3.7702 0.0000 0.0000 0.0000 0.0000 0.0000 74.7914 -24.0100 31.0905 -159.3411 65.9434 -73.3816 304.2135 29.9327 -78.5660 -55.6680 -11.1673 -4.5047 9.7273 0.0000 0.0000 6.1684 0.0000 0.0000 14.3598 0.6553 0.2544 4.6696 0.0000 0.0000 3.5365 0.0000 0.0000 3.5388 0.2109 -2.0456 5.3811 0.0000 0.0000 2.0302 0.0000 0.0000 -3.2376 -0.0154 -1.4828 2.9696 0.0000 0.0000 2.7006 0.0000 0.0000 -11.4539 -0.8255 -0.1596 2.7035 0.0000 0.0000 3.9783 0.0000 0.0000 0.0000 0.0000 0.0000 0.0000 0.0000 0.0000 0.0000 0.0000 0.0000 0.0000 0.0000 0.0000 0.0000 0.0000 0.0000 0.0000 0.0000 0.0000
0.0000 95.0000 0.0000 0.0000 0.0000 0.0000 0.0000 0.0000 0.0000 0.0000 0.0000 0.0000 0.0000 0.0000 0.0000 0.0000 0.0000 0.0000 0.0000 0.0000 0.0000 0.0000 0.0000 0.0000 -72.5970 15.3816 20.8347 -0.5266 2.1441 -2.6194 21.6018 8.5223 -52.5453 80.0599 -15.2021 -14.5786 20.8028 0.0000 0.0000 34.6284 0.0000 0.0000 17.5587 23.6639 -65.6159 37.7883 0.0000 0.0000 4.7304 0.0000 0.0000 30.0542 24.3426 -82.3302 26.2283 0.0000 0.0000 2.6193 0.0000 0.0000 37.0887 19.5115 -94.1871 26.4609 0.0000 0.0000 2.9434 0.0000 0.0000 40.1025 4.7493 -107.8076 23.5876 0.0000 0.0000 4.1916 0.0000 0.0000 0.0000 0.0000 0.0000 74.8553 -24.0352 31.0883 -158.7161 67.5326 -73.6543 302.6357 30.3211 -79.8170 -56.5456 -11.2653 -5.1265 9.3985 0.0000 0.0000 2.0299 0.0000 0.0000 13.8757 0.5614 -1.0006 5.3162 0.0000 0.0000 3.0687 0.0000 0.0000 3.6444 0.2522 -3.1434 5.9085 0.0000 0.0000 1.1697 0.0000 0.0000 -2.7356 0.1406 -2.5220 3.4251 0.0000 0.0000 2.4935 0.0000 0.0000 -11.0504 -0.6200 -1.0173 1.7983 0.0000 0.0000 3.9594 0.0000 0.0000 0.0000 0.0000 0.0000 0.0000 0.0000 0.0000 0.0000 0.0000 0.0000 0.0000 0.0000 0.0000 0.0000 0.0000 0.0000 0.0000 0.0000 0.0000
0.0000 95.0000 0.0000 0.0000 0.0000 0.0000 0.0000 0.0000 0.0000 0.0000 0.0000 0.0000 0.0000 0.0000 0.0000 0.0000 0.0000 0.0000 0.0000 0.0000 0.0000 0.0000 0.0000 0.0000 -72.8326 15.2561 20.5795 -0.5423 2.2658 -2.7682 20.7022 8.4669 -49.2832 81.0905 -15.1921 -15.4253 19.8645 0.0000 0.0000 36.3541 0.0000 0.0000 16.8940 23.2926 -65.7150 41.4139 0.0000 0.0000 4.8134 0.0000 0.0000 30.1633 25.0244 -83.7158 28.2324 0.0000 0.0000 2.8173 0.0000 0.0000 37.1424 20.3752 -96.4595 27.8623 0.0000 0.0000 3.1240 0.0000 0.0000 39.7885 4.7595 -110.8766 24.6710 0.0000 0.0000 4.4314 0.0000 0.0000 0.0000 0.0000 0.0000 75.3687 -23.7984 30.5172 -159.4815 67.6707 -74.1792 302.2231 29.8055 -79.8120 -55.7586 -11.1137 -4.9717 8.8024 0.0000 0.0000 2.2967 0.0000 0.0000 13.7213 0.5673 -0.7662 5.3671 0.0000 0.0000 3.1906 0.0000 0.0000 3.5175 0.2393 -3.0096 6.0464 0.0000 0.0000 1.2257 0.0000 0.0000 -3.1174 0.0865 -2.3092 3.4849 0.0000 0.0000 2.5030 0.0000 0.0000 -11.1533 -0.6625 -0.8506 1.9254 0.0000 0.0000 3.8800 0.0000 0.0000 0.0000 0.0000 0.0000 0.0000 0.0000 0.0000 0.0000 0.0000 0.0000 0.0000 0.0000 0.0000 0.0000 0.0000 0.0000 0.0000 0.0000 0.0000
0.0000 95.0000 0.0000 0.0000 0.0000 0.0000 0.0000 0.0000 0.0000 0.0000 0.0000 0.0000 0.0000 0.0000 0.0000 0.0000 0.0000 0.0000 0.0000 0.0000 0.0000 0.0000 0.0000 0.0000 -72.5984 15.5244 21.0257 -0.7229 2.5419 -3.0779 18.3366 8.3036 -44.5177 82.5341 -15.1366 -16.8236 17.7624 0.0000 0.0000 39.9656 0.0000 0.0000 13.8088 21.1427 -65.1251 49.9532 0.0000 0.0000 4.9739 0.0000 0.0000 28.9020 25.0618 -86.3247 32.8728 0.0000 0.0000 3.2614 0.0000 0.0000 36.0082 20.8315 -100.9224 30.9366 0.0000 0.0000 3.5428 0.0000 0.0000 38.2008 3.3304 -116.5436 26.9893 0.0000 0.0000 4.9733 0.0000 0.0000 0.0000 0.0000 0.0000 75.3645 -23.8160 30.5415 -158.3176 68.4805 -73.6010 301.2137 29.4693 -79.9253 -56.1036 -11.1975 -4.9255 9.1309 0.0000 0.0000 2.4899 0.0000 0.0000 13.7914 0.5597 -0.9545 4.9528 0.0000 0.0000 3.1815 0.0000 0.0000 3.4407 0.2331 -2.9777 5.6878 0.0000 0.0000 1.3706 0.0000 0.0000 -3.1999 0.0844 -2.3464 3.0030 0.0000 0.0000 2.5444 0.0000 0.0000 -11.6042 -0.6951 -0.8696 2.1234 0.0000 0.0000 3.8297 0.0000 0.0000 0.0000 0.0000 0.0000 0.0000 0.0000 0.0000 0.0000 0.0000 0.0000 0.0000 0.0000 0.0000 0.0000 0.0000 0.0000 0.0000 0.0000 0.0000
0.0000 95.0000 0.0000 0.0000 0.0000 0.0000 0.0000 0.0000 0.0000 0.0000 0.0000 0.0000 0.0000 0.0000 0.0000 0.0000 0.0000 0.0000 0.0000 0.0000 0.0000 0.0000 0.0000 0.0000 -72.5454 15.6877 21.2646 -0.9131 2.8326 -3.3999 16.4493 7.8901 -40.4827 83.2298 -15.0688 -17.8340 15.4291 0.0000 0.0000 43.7074 0.0000 0.0000 8.9267 17.3958 -62.7922 60.2813 0.0000 0.0000 5.1257 0.0000 0.0000 26.0422 23.3229 -88.2676 38.5859 0.0000 0.0000 3.7794 0.0000 0.0000 33.6425 19.6649 -105.0025 34.4522 0.0000 0.0000 4.0436 0.0000 0.0000 35.7759 0.1849 -121.3525 29.5532 0.0000 0.0000 5.6030 0.0000 0.0000 0.0000 0.0000 0.0000 75.2549 -23.8237 30.6089 -156.6771 69.4957 -72.6536 299.6937 27.6685 -78.7051 -55.9505 -11.3171 -3.9355 10.1265 0.0000 0.0000 4.7163 0.0000 0.0000 15.2788 0.6181 -1.3789 4.8594 0.0000 0.0000 4.1546 0.0000 0.0000 5.4257 0.4177 -4.0267 6.4582 0.0000 0.0000 1.9989 0.0000 0.0000 -1.7093 0.3074 -3.2062 3.9466 0.0000 0.0000 1.9039 0.0000 0.0000 -9.9025 -0.4685 -1.2803 1.6459 0.0000 0.0000 3.0756 0.0000 0.0000 0.0000 0.0000 0.0000 0.0000 0.0000 0.0000 0.0000 0.0000 0.0000 0.0000 0.0000 0.0000 0.0000 0.0000 0.0000 0.0000 0.0000 0.0000
0.0000 95.0000 0.0000 0.0000 0.0000 0.0000 0.0000 0.0000 0.0000 0.0000 0.0000 0.0000 0.0000 0.0000 0.0000 0.0000 0.0000 0.0000 0.0000 0.0000 0.0000 0.0000 0.0000 0.0000 -72.5049 15.9737 21.6638 -1.2036 2.8788 -3.3549 14.7389 7.7155 -37.6940 83.2949 -15.0140 -18.4849 13.0196 0.0000 0.0000 47.4303 0.0000 0.0000 2.9948 12.8075 -58.1913 72.0340 0.0000 0.0000 5.2676 0.0000 0.0000 22.0083 19.8761 -88.8121 45.7163 0.0000 0.0000 4.3849 0.0000 0.0000 30.4876 17.0026 -108.2966 38.5346 0.0000 0.0000 4.6320 0.0000 0.0000 32.8657 -4.3650 -125.0365 32.4340 0.0000 0.0000 6.3254 0.0000 0.0000 0.0000 0.0000 0.0000 75.2284 -23.5537 30.2821 -153.1221 72.3159 -70.4756 297.9664 25.7262 -76.1134 -54.9646 -11.0929 -4.0216 8.5475 0.0000 0.0000 3.6313 0.0000 0.0000 15.7246 0.6737 -0.6585 5.4646 0.0000 0.0000 3.1326 0.0000 0.0000 5.4718 0.3666 -2.8882 5.6445 0.0000 0.0000 1.1506 0.0000 0.0000 -1.2004 0.2766 -2.6402 2.2659 0.0000 0.0000 3.8312 0.0000 0.0000 -6.8375 -0.1084 -1.6787 4.1380 0.0000 0.0000 4.3534 0.0000 0.0000 0.0000 0.0000 0.0000 0.0000 0.0000 0.0000 0.0000 0.0000 0.0000 0.0000 0.0000 0.0000 0.0000 0.0000 0.0000 0.0000 0.0000 0.0000
